# xmcd
#
# Track frame offsets: 
#        150
#        7646
#        25425
#        52858
#        75297
#        94179
#        115320
#        140710
#        162360
#        191162
#        213953
#        236160
#        260783
#        284077
#        302192
#
# Disc length: 4420 seconds
#
# Revision: 1
# Processed by: cddbd v1.5.2PL0 Copyright (c) Steve Scherf et al.
# Submitted via: ExactAudioCopy v0.99pb4
#
DISCID=d311420f
DTITLE=Bruce Springsteen - Hamburg, 6-27-05(sw version-Disc 1)
DYEAR=2005
DGENRE=Rock and Roll
TTITLE0=Intro
TTITLE1=Downbound Train
TTITLE2=Reason To Believe
TTITLE3=Devils and Dust
TTITLE4=Long Time Comin'
TTITLE5=Highway 29
TTITLE6=Tougher Than The Rest
TTITLE7=The River
TTITLE8=Part Man, Part Monkey
TTITLE9=All I'm Thinkin' About
TTITLE10=Highway Patrolman
TTITLE11=Reno
TTITLE12=Janey, Don't You Lose Heart
TTITLE13=Racing In The Street
TTITLE14=Unknown
EXTD=
EXTT0=
EXTT1=
EXTT2=
EXTT3=
EXTT4=
EXTT5=
EXTT6=
EXTT7=
EXTT8=
EXTT9=
EXTT10=
EXTT11=
EXTT12=
EXTT13=
EXTT14=
PLAYORDER=
